$MeshFormat
4.1 0 8
$EndMeshFormat
$Entities
6 5 0 0
1 0 0 0 0 
2 -1 0 0 0 
3 0 1 0 0 
4 5 1 0 0 
5 8 3 0 0 
6 8 0 0 0 
1 -1.0000001 -1.000000001138979e-07 -1e-07 9.999999983634211e-08 1.0000001 1e-07 0 2 2 -3 
2 -9.999999983634211e-08 0.9999999000000001 -1e-07 5.0000001 1.0000001 1e-07 0 2 3 -4 
3 4.9999999 0.9999999000000002 -1e-07 8.000000099999999 3.0000001 1e-07 0 2 4 -5 
4 7.9999999 -1.000000000583867e-07 -1e-07 8.000000099999999 3.0000001 1e-07 0 2 5 -6 
5 -1.0000001 -1e-07 -1e-07 8.000000099999999 1e-07 1e-07 0 2 6 -2 
$EndEntities
